<svg width="22" height="22" viewBox="0 0 22 22" fill="none" xmlns="http://www.w3.org/2000/svg">
<path d="M14.8498 9.46435e-07C15.4173 -5.89166e-05 15.9778 0.125312 16.4912 0.367142C17.0045 0.608971 17.4581 0.96128 17.8194 1.39886C18.1807 1.83643 18.4409 2.34845 18.5811 2.89828C18.7214 3.4481 18.7384 4.02214 18.6309 4.5793L18.6144 4.6519C19.5715 4.97113 20.4083 5.57501 21.0128 6.38274C21.6172 7.19048 21.9606 8.16354 21.9968 9.17171C22.0331 10.1799 21.7605 11.1751 21.2156 12.0241C20.6707 12.8732 19.8795 13.5356 18.9478 13.9227L17.753 21.0804C17.7103 21.3373 17.5779 21.5706 17.3792 21.739C17.1806 21.9074 16.9287 21.9999 16.6683 22H5.33028C5.06987 21.9999 4.81794 21.9074 4.61932 21.739C4.42069 21.5706 4.28825 21.3373 4.24554 21.0804L3.1135 14.2934C2.35212 14.2502 1.6292 13.9447 1.0676 13.4289C0.506011 12.913 0.140409 12.2186 0.0329418 11.4637C-0.074525 10.7088 0.082776 9.94003 0.478107 9.28798C0.873438 8.63593 1.4824 8.14089 2.20149 7.887L2.19819 7.7C2.19797 6.5862 2.47966 5.49046 3.01703 4.51483C3.5544 3.5392 4.32997 2.71542 5.2715 2.1202C6.21303 1.52498 7.2899 1.17769 8.40182 1.11067C9.51374 1.04365 10.6245 1.25908 11.6308 1.7369C11.9809 1.20294 12.4585 0.764566 13.0205 0.461333C13.5825 0.1581 14.2112 -0.00044697 14.8498 9.46435e-07ZM7.69887 14.3H5.34458L6.26209 19.8H7.69887V14.3ZM12.0994 14.3H9.89914V19.8H12.0994V14.3ZM16.6529 14.3H14.2997V19.8H15.7354L16.6529 14.3ZM8.79901 3.3C6.44251 3.3 4.51837 5.1524 4.40396 7.4437L4.39846 7.6604L4.40176 7.8474C4.40954 8.27934 4.28995 8.70402 4.05792 9.06845C3.82589 9.43288 3.49169 9.72094 3.097 9.8967L2.93198 9.9616C2.6877 10.0486 2.48195 10.2189 2.35096 10.4427C2.21998 10.6665 2.17217 10.9293 2.21595 11.1848C2.25973 11.4404 2.39229 11.6723 2.59029 11.8397C2.78829 12.0071 3.03902 12.0993 3.29832 12.1H17.05C17.4567 12.1 17.8582 12.0098 18.2258 11.836C18.5935 11.6622 18.9179 11.409 19.1759 11.0947C19.4339 10.7805 19.619 10.4129 19.7178 10.0185C19.8167 9.62411 19.8269 9.21271 19.7476 8.81392C19.6683 8.41513 19.5016 8.03888 19.2594 7.71226C19.0173 7.38564 18.7057 7.11677 18.3471 6.92502C17.9885 6.73327 17.5919 6.62341 17.1857 6.60335C16.7796 6.58329 16.374 6.65352 15.9983 6.809L15.8058 6.8981C15.2981 7.15965 14.7087 7.21361 14.162 7.04857C13.6153 6.88354 13.1542 6.51244 12.8761 6.0137L12.7991 5.863C12.4475 5.09787 11.8837 4.44968 11.1747 3.99538C10.4657 3.54107 9.64113 3.29973 8.79901 3.3ZM14.8498 2.2C14.5646 2.19994 14.2842 2.27378 14.0361 2.41432C13.7879 2.55486 13.5805 2.7573 13.4339 3.0019C14.002 3.56112 14.4641 4.21851 14.798 4.9423C15.2865 4.6915 15.8212 4.5199 16.3888 4.444C16.4853 4.19407 16.5194 3.92441 16.4883 3.65833C16.4572 3.39225 16.3617 3.13775 16.2102 2.91681C16.0587 2.69588 15.8556 2.51516 15.6186 2.39027C15.3816 2.26538 15.1177 2.20008 14.8498 2.2Z" fill="#5D7FF7"/>
</svg>
