<svg width="30" height="30" viewBox="0 0 30 30" fill="none" xmlns="http://www.w3.org/2000/svg">
<path d="M16.9969 14.9998L22.363 9.43344C22.6177 9.16972 22.7609 8.81187 22.7612 8.43859C22.7615 8.06531 22.6189 7.70719 22.3647 7.44301C22.1105 7.17883 21.7655 7.03023 21.4056 7.0299C21.0458 7.02957 20.7006 7.17754 20.4459 7.44125L15.0798 13.0077L9.71374 7.44125C9.45907 7.17707 9.11366 7.02866 8.7535 7.02866C8.39334 7.02866 8.04793 7.17707 7.79325 7.44125C7.53858 7.70543 7.39551 8.06374 7.39551 8.43735C7.39551 8.81095 7.53858 9.16926 7.79325 9.43344L13.1593 14.9998L7.79325 20.5663C7.53858 20.8304 7.39551 21.1887 7.39551 21.5623C7.39551 21.936 7.53858 22.2943 7.79325 22.5584C8.04793 22.8226 8.39334 22.971 8.7535 22.971C9.11366 22.971 9.45907 22.8226 9.71374 22.5584L15.0798 16.992L20.4459 22.5584C20.7006 22.8226 21.046 22.971 21.4061 22.971C21.7663 22.971 22.1117 22.8226 22.3664 22.5584C22.6211 22.2943 22.7641 21.936 22.7641 21.5623C22.7641 21.1887 22.6211 20.8304 22.3664 20.5663L16.9969 14.9998Z" fill="#666666"/>
</svg>
