<svg width="31" height="30" viewBox="0 0 31 30" fill="none" xmlns="http://www.w3.org/2000/svg">
<path d="M21.7625 7.5H26.45" stroke="#5D7FF6" stroke-width="2" stroke-linecap="round" stroke-linejoin="round"/>
<path d="M3.94995 7.5H18.0124" stroke="#5D7FF6" stroke-width="2" stroke-linecap="round" stroke-linejoin="round"/>
<path d="M21.7625 22.5H26.45" stroke="#5D7FF6" stroke-width="2" stroke-linecap="round" stroke-linejoin="round"/>
<path d="M3.94995 22.5H18.0124" stroke="#5D7FF6" stroke-width="2" stroke-linecap="round" stroke-linejoin="round"/>
<path d="M12.3875 15H26.45" stroke="#5D7FF6" stroke-width="2" stroke-linecap="round" stroke-linejoin="round"/>
<path d="M3.94995 15H8.63745" stroke="#5D7FF6" stroke-width="2" stroke-linecap="round" stroke-linejoin="round"/>
<path d="M19.8875 9.375C20.923 9.375 21.7625 8.53553 21.7625 7.5C21.7625 6.46447 20.923 5.625 19.8875 5.625C18.8519 5.625 18.0125 6.46447 18.0125 7.5C18.0125 8.53553 18.8519 9.375 19.8875 9.375Z" stroke="#5D7FF6" stroke-width="2" stroke-linecap="round" stroke-linejoin="round"/>
<path d="M10.5125 16.875C11.548 16.875 12.3875 16.0355 12.3875 15C12.3875 13.9645 11.548 13.125 10.5125 13.125C9.47692 13.125 8.63745 13.9645 8.63745 15C8.63745 16.0355 9.47692 16.875 10.5125 16.875Z" stroke="#5D7FF6" stroke-width="2" stroke-linecap="round" stroke-linejoin="round"/>
<path d="M19.8875 24.375C20.923 24.375 21.7625 23.5355 21.7625 22.5C21.7625 21.4645 20.923 20.625 19.8875 20.625C18.8519 20.625 18.0125 21.4645 18.0125 22.5C18.0125 23.5355 18.8519 24.375 19.8875 24.375Z" stroke="#5D7FF6" stroke-width="2" stroke-linecap="round" stroke-linejoin="round"/>
</svg>
