<svg width="322" height="225" viewBox="0 0 322 225" fill="none" xmlns="http://www.w3.org/2000/svg">
<rect width="322" height="225" fill="#EBEAF0"/>
<path d="M120.6 82.4V79.52C120.6 77.9294 121.895 76.64 123.48 76.64H127.32C128.91 76.64 130.2 77.9327 130.2 79.52V82.4" stroke="black" stroke-width="4" stroke-linecap="round" stroke-linejoin="round"/>
<path fill-rule="evenodd" clip-rule="evenodd" d="M135.878 83.4H113.873C112.284 83.4 111 84.6934 111 86.2888V146.751C111 148.347 112.286 149.64 113.873 149.64H204.127C205.716 149.64 207 148.347 207 146.751V86.2888C207 84.6935 205.714 83.4 204.127 83.4H182.165L175.167 71.478C174.363 70.1094 172.424 69 170.834 69H147.274C145.694 69 143.74 70.1095 142.93 71.478L135.878 83.4Z" stroke="black" stroke-width="4" stroke-linecap="round" stroke-linejoin="round"/>
<path d="M159 138.12C170.664 138.12 180.12 128.664 180.12 117C180.12 105.336 170.664 95.88 159 95.88C147.336 95.88 137.88 105.336 137.88 117C137.88 128.664 147.336 138.12 159 138.12Z" stroke="black" stroke-width="4" stroke-linecap="round" stroke-linejoin="round"/>
<path d="M154.2 104.52C151.295 104.52 146.52 109.07 146.52 112.2" stroke="black" stroke-width="4" stroke-linecap="round" stroke-linejoin="round"/>
<path d="M149.4 80.52H168.6" stroke="black" stroke-width="4" stroke-linecap="round" stroke-linejoin="round"/>
</svg>
