<svg width="15" height="20" viewBox="0 0 15 20" fill="none" xmlns="http://www.w3.org/2000/svg">
<path d="M14.6667 19.25H12.8333V17.4167C12.8333 16.6873 12.5436 15.9878 12.0279 15.4721C11.5122 14.9564 10.8127 14.6667 10.0833 14.6667H4.58333C3.85399 14.6667 3.15451 14.9564 2.63879 15.4721C2.12306 15.9878 1.83333 16.6873 1.83333 17.4167V19.25H0V17.4167C0 16.2011 0.482885 15.0353 1.34243 14.1758C2.20197 13.3162 3.36776 12.8333 4.58333 12.8333H10.0833C11.2989 12.8333 12.4647 13.3162 13.3242 14.1758C14.1838 15.0353 14.6667 16.2011 14.6667 17.4167V19.25ZM7.33333 11C6.61106 11 5.89586 10.8577 5.22857 10.5813C4.56128 10.3049 3.95497 9.89981 3.44425 9.38909C2.93352 8.87837 2.5284 8.27205 2.252 7.60476C1.97559 6.93747 1.83333 6.22227 1.83333 5.5C1.83333 4.77773 1.97559 4.06253 2.252 3.39524C2.5284 2.72795 2.93352 2.12164 3.44425 1.61091C3.95497 1.10019 4.56128 0.695063 5.22857 0.418663C5.89586 0.142262 6.61106 -1.07627e-08 7.33333 0C8.79202 2.17362e-08 10.191 0.579463 11.2224 1.61091C12.2539 2.64236 12.8333 4.04131 12.8333 5.5C12.8333 6.95869 12.2539 8.35764 11.2224 9.38909C10.191 10.4205 8.79202 11 7.33333 11V11ZM7.33333 9.16667C8.30579 9.16667 9.23842 8.78036 9.92606 8.09273C10.6137 7.40509 11 6.47246 11 5.5C11 4.52754 10.6137 3.59491 9.92606 2.90728C9.23842 2.21964 8.30579 1.83333 7.33333 1.83333C6.36087 1.83333 5.42824 2.21964 4.74061 2.90728C4.05297 3.59491 3.66667 4.52754 3.66667 5.5C3.66667 6.47246 4.05297 7.40509 4.74061 8.09273C5.42824 8.78036 6.36087 9.16667 7.33333 9.16667V9.16667Z" fill="#5D7FF6"/>
</svg>
