<svg width="20" height="20" viewBox="0 0 20 20" fill="none" xmlns="http://www.w3.org/2000/svg">
<path d="M15.3907 18.7502C15.2591 18.7507 15.1308 18.7097 15.0239 18.633L10.0001 14.9909L4.97624 18.633C4.86891 18.7109 4.7396 18.7526 4.60701 18.7521C4.47442 18.7516 4.34542 18.709 4.23866 18.6304C4.1319 18.5517 4.05291 18.4412 4.01311 18.3147C3.9733 18.1882 3.97476 18.0524 4.01725 17.9268L5.97663 12.1233L0.898504 8.64086C0.788508 8.56551 0.70549 8.45696 0.661579 8.33107C0.617668 8.20518 0.615165 8.06855 0.654436 7.94114C0.693707 7.81372 0.772694 7.70221 0.879856 7.62288C0.987018 7.54356 1.11674 7.50058 1.25007 7.50023H7.51491L9.40553 1.68187C9.44626 1.55625 9.52573 1.44677 9.63254 1.36911C9.73935 1.29146 9.86801 1.24963 10.0001 1.24963C10.1321 1.24963 10.2608 1.29146 10.3676 1.36911C10.4744 1.44677 10.5539 1.55625 10.5946 1.68187L12.4852 7.50218H18.7501C18.8836 7.50212 19.0136 7.5448 19.121 7.62397C19.2285 7.70314 19.3078 7.81465 19.3474 7.94216C19.3869 8.06967 19.3845 8.20648 19.3407 8.33256C19.2968 8.45864 19.2137 8.56737 19.1036 8.64281L14.0235 12.1233L15.9817 17.9252C16.0134 18.0192 16.0224 18.1193 16.0077 18.2174C15.9931 18.3154 15.9554 18.4086 15.8976 18.4892C15.8399 18.5698 15.7638 18.6355 15.6757 18.6809C15.5875 18.7263 15.4898 18.7501 15.3907 18.7502Z" fill="#FFD600"/>
</svg>
