<svg width="355" height="227" viewBox="0 0 355 227" fill="none" xmlns="http://www.w3.org/2000/svg">
<path d="M0 0H355V227H0V0Z" fill="#FDFDFD"/>
<path d="M265.245 174.693C239.5 168.619 211.919 173.006 185.866 174.589C153.141 176.576 119.615 173.11 87.3531 180.034C86.9761 180.115 86.7821 180.353 86.6731 180.632C86.0751 180.573 85.4671 180.781 85.1961 181.378C83.3651 185.418 83.5611 185.026 83.0331 189.724C82.9201 190.731 83.8611 191.912 84.8391 192.095C117.959 198.315 154.987 194.393 188.395 193.108C206.53 192.41 224.791 191.533 242.791 189.096C247.978 188.394 263.112 188.043 264.939 180.999C267.967 180.263 268.92 175.56 265.245 174.693ZM229.304 184.474C211.14 186.37 192.862 187.259 174.62 187.986C156.147 188.722 137.652 188.998 119.165 188.857C112.519 188.806 105.87 188.67 99.2281 188.422C96.7501 188.329 94.2761 188.18 91.8031 188.005C86.5271 187.63 87.5101 187.49 88.1551 182.216C119.14 182.865 150.415 181.771 181.396 180.922C207.201 180.215 232.502 177.041 258.168 180.283C252.917 182.905 232.929 184.097 229.304 184.474Z" fill="black"/>
<path d="M180.498 75.5923C178.246 75.6143 175.986 75.7523 173.725 75.9263C171.998 68.9273 165.017 63.0343 157.736 64.3453C149.981 65.7413 148.222 73.8143 150.013 80.3943C113.121 91.6253 82.1921 121.905 87.5531 163.071C87.0841 164.13 87.1541 165.466 87.8001 166.496C87.3911 167.169 87.6711 168.194 88.7241 168.29C89.3401 168.345 89.9551 168.375 90.5711 168.422C93.4941 169.581 96.8111 169.412 100.059 168.868C124.639 169.264 149.067 164.383 173.583 162.715C201.287 160.83 230.812 161.074 258.233 165.499C260.034 165.79 261.304 164.535 261.659 163.154C262.535 162.586 263.157 161.681 263.498 160.668C263.84 160.466 264.149 160.187 264.35 159.724C285.254 111.206 220.914 75.2033 180.498 75.5923ZM160.496 70.9043C160.696 70.7763 160.872 70.7463 161.063 70.6553C163.954 70.5943 165.516 73.5993 166.651 76.6933C163.855 77.0913 161.066 77.5743 158.298 78.1893C157.207 75.5533 158.017 72.4893 160.496 70.9043ZM260.592 154.505C260.561 154.493 260.536 154.477 260.503 154.467C229.356 144.527 196.656 148.188 164.751 151.964C149.854 153.727 134.847 154.13 119.965 156.105C111.04 157.29 100.997 161.667 91.9261 161.459C95.9401 115.122 129.94 87.1503 176.27 83.5313C213.876 80.5933 269.472 110.943 260.592 154.505Z" fill="black"/>
<path d="M139.128 67.9183C136.873 63.5013 134.072 59.3013 131.545 55.0313C129.526 51.6203 127.591 46.5323 124.403 44.0583C121.492 41.7993 115.963 43.7163 117.486 48.0843C118.84 51.9653 122.366 55.3493 124.888 58.5433C128.172 62.7023 131.47 67.2843 135.646 70.6033C137.583 72.1423 140.327 70.2663 139.128 67.9183Z" fill="black"/>
<path d="M120.382 75.0933C117.395 72.6743 114.411 70.4043 111.255 68.2063C108.275 66.1313 105.358 63.5373 102.176 61.8073C98.3101 59.7053 93.9831 64.8853 97.3761 68.0283C102.842 73.0903 111.223 76.7293 118.336 78.6073C120.238 79.1093 122.095 76.4793 120.382 75.0933Z" fill="black"/>
<path d="M101.008 90.1043C97.9981 89.2783 94.9781 88.8523 91.9251 88.2193C90.7721 87.9803 89.5551 87.6763 88.4851 87.1753C88.3461 87.1103 85.1561 85.8573 86.1641 86.5173C83.4381 84.7333 80.5001 87.6513 81.0721 90.4323C82.7041 98.3703 96.6421 96.0623 101.395 93.0643C102.563 92.3263 102.396 90.4843 101.008 90.1043Z" fill="black"/>
<path d="M214.106 32.0343C209.903 32.6413 207.277 37.3663 205.055 40.5823C202.074 44.8983 199.693 49.5863 196.674 53.8813C195.175 56.0153 198.501 58.4973 200.244 56.6353C203.512 53.1433 206.431 49.3473 209.353 45.5673C211.877 42.3013 216.179 39.2893 217.321 35.2493C217.915 33.1443 215.991 31.7613 214.106 32.0343Z" fill="black"/>
<path d="M234.257 41.9583C226.282 45.8373 223.695 57.2983 217.997 63.6143C215.604 66.2673 218.59 70.0723 221.75 68.4783C225.646 66.5133 228.431 63.1023 230.944 59.6163C233.715 55.7713 236.48 52.4943 239.757 49.0873C243.464 45.2343 238.811 39.7443 234.257 41.9583Z" fill="black"/>
<path d="M270.833 59.2453C267.908 59.3393 265.396 60.8063 262.686 61.8143C259.509 62.9953 256.333 64.1303 253.214 65.4603C247.98 67.6923 243.337 71.6933 243.009 77.6573C242.836 80.8003 247.155 81.6413 248.674 79.1913C251.223 75.0813 255.82 73.6903 260.21 72.3263C264.54 70.9813 270.842 70.3173 273.947 66.7623C276.339 64.0233 274.915 59.1143 270.833 59.2453Z" fill="black"/>
</svg>
