<svg width="200" height="200" viewBox="0 0 200 200" fill="none" xmlns="http://www.w3.org/2000/svg">
<path d="M101.132 18.7514C55.437 18.1343 18.1323 55.4389 18.7495 101.134C19.3589 144.958 55.0425 180.642 98.8667 181.251C144.57 181.876 181.867 144.572 181.242 98.8764C180.64 55.0444 144.957 19.3608 101.132 18.7514ZM150.515 146.583C150.36 146.752 150.169 146.884 149.956 146.97C149.744 147.056 149.515 147.095 149.287 147.083C149.058 147.071 148.834 147.009 148.632 146.901C148.43 146.793 148.254 146.642 148.117 146.458C144.623 141.887 140.344 137.973 135.48 134.9C125.535 128.517 112.933 125.001 99.9995 125.001C87.0659 125.001 74.4643 128.517 64.519 134.9C59.6552 137.972 55.3764 141.884 51.8823 146.455C51.745 146.638 51.5691 146.789 51.3669 146.897C51.1647 147.005 50.9413 147.067 50.7124 147.079C50.4835 147.091 50.2548 147.052 50.0425 146.966C49.8302 146.88 49.6395 146.748 49.4839 146.58C38.0217 134.206 31.5288 118.038 31.2495 101.173C30.6128 63.1616 61.8042 31.3452 99.8315 31.2514C137.859 31.1577 168.749 62.0366 168.749 100.001C168.763 117.273 162.25 133.911 150.515 146.583V146.583Z" fill="#DADADA"/>
<path d="M99.9998 56.25C92.2966 56.25 85.3318 59.1367 80.3826 64.3828C75.4334 69.6289 72.9607 76.8828 73.5193 84.668C74.6521 100 86.531 112.5 99.9998 112.5C113.469 112.5 125.324 100 126.48 84.6719C127.058 76.9609 124.605 69.7734 119.574 64.4297C114.605 59.1563 107.652 56.25 99.9998 56.25Z" fill="#DADADA"/>
</svg>
