<svg width="195" height="31" viewBox="0 0 195 31" fill="none" xmlns="http://www.w3.org/2000/svg">
<path d="M21.6122 10H25.2486C24.169 4.375 19.4531 0.511363 13.3168 0.511363C5.85938 0.511363 0.589489 6.25 0.589489 15.4545C0.589489 24.6591 5.81676 30.3977 13.544 30.3977C20.4759 30.3977 25.419 25.7812 25.419 18.5795V15.4545H14.3395V18.5795H22.0099C21.9105 23.8068 18.473 27.1023 13.544 27.1023C8.14631 27.1023 3.99858 23.0114 3.99858 15.4545C3.99858 7.89773 8.14631 3.80682 13.3168 3.80682C17.5213 3.80682 20.3764 6.17898 21.6122 10ZM39.8615 30.4545C45.7706 30.4545 49.7479 25.9659 49.7479 19.2045C49.7479 12.3864 45.7706 7.89773 39.8615 7.89773C33.9524 7.89773 29.9751 12.3864 29.9751 19.2045C29.9751 25.9659 33.9524 30.4545 39.8615 30.4545ZM39.8615 27.4432C35.3729 27.4432 33.3274 23.5795 33.3274 19.2045C33.3274 14.8295 35.3729 10.9091 39.8615 10.9091C44.3501 10.9091 46.3956 14.8295 46.3956 19.2045C46.3956 23.5795 44.3501 27.4432 39.8615 27.4432ZM63.7287 30.4545C69.6378 30.4545 73.6151 25.9659 73.6151 19.2045C73.6151 12.3864 69.6378 7.89773 63.7287 7.89773C57.8196 7.89773 53.8423 12.3864 53.8423 19.2045C53.8423 25.9659 57.8196 30.4545 63.7287 30.4545ZM63.7287 27.4432C59.2401 27.4432 57.1946 23.5795 57.1946 19.2045C57.1946 14.8295 59.2401 10.9091 63.7287 10.9091C68.2173 10.9091 70.2628 14.8295 70.2628 19.2045C70.2628 23.5795 68.2173 27.4432 63.7287 27.4432ZM86.9709 30.4545C91.1754 30.4545 92.5959 27.8409 93.3345 26.6477H93.7322V30H96.9709V0.90909H93.6186V11.6477H93.3345C92.5959 10.5114 91.2891 7.89773 87.0277 7.89773C81.5163 7.89773 77.7095 12.2727 77.7095 19.1477C77.7095 26.0795 81.5163 30.4545 86.9709 30.4545ZM87.4254 27.4432C83.2209 27.4432 81.0618 23.75 81.0618 19.0909C81.0618 14.4886 83.1641 10.9091 87.4254 10.9091C91.5163 10.9091 93.6754 14.2045 93.6754 19.0909C93.6754 24.0341 91.4595 27.4432 87.4254 27.4432Z" fill="#4065E7"/>
<path d="M103.036 30H109.187V17.983H121.019V12.9119H109.187V5.98011H122.298V0.90909H103.036V30ZM134.577 30.4261C141.197 30.4261 145.316 25.8949 145.316 19.1761C145.316 12.4148 141.197 7.89773 134.577 7.89773C127.958 7.89773 123.839 12.4148 123.839 19.1761C123.839 25.8949 127.958 30.4261 134.577 30.4261ZM134.606 25.7386C131.552 25.7386 129.989 22.9403 129.989 19.1335C129.989 15.3267 131.552 12.5142 134.606 12.5142C137.603 12.5142 139.165 15.3267 139.165 19.1335C139.165 22.9403 137.603 25.7386 134.606 25.7386ZM159.109 30.4261C165.728 30.4261 169.847 25.8949 169.847 19.1761C169.847 12.4148 165.728 7.89773 159.109 7.89773C152.489 7.89773 148.37 12.4148 148.37 19.1761C148.37 25.8949 152.489 30.4261 159.109 30.4261ZM159.137 25.7386C156.083 25.7386 154.521 22.9403 154.521 19.1335C154.521 15.3267 156.083 12.5142 159.137 12.5142C162.134 12.5142 163.697 15.3267 163.697 19.1335C163.697 22.9403 162.134 25.7386 159.137 25.7386ZM181.822 30.3551C185.344 30.3551 187.177 28.3239 188.015 26.5057H188.271V30H194.237V0.90909H188.2V11.8466H188.015C187.205 10.071 185.458 7.89773 181.808 7.89773C177.021 7.89773 172.972 11.6193 172.972 19.1193C172.972 26.4205 176.85 30.3551 181.822 30.3551ZM183.739 25.5398C180.771 25.5398 179.151 22.8977 179.151 19.0909C179.151 15.3125 180.742 12.7131 183.739 12.7131C186.68 12.7131 188.327 15.1989 188.327 19.0909C188.327 22.983 186.651 25.5398 183.739 25.5398Z" fill="#2CD033"/>
</svg>
