<svg width="15" height="15" viewBox="0 0 15 15" fill="none" xmlns="http://www.w3.org/2000/svg">
<path d="M3.30789 3.74982C2.39828 4.76573 1.88902 6.07768 1.87498 7.44123C1.84041 10.557 4.38426 13.119 7.49998 13.1248C10.6113 13.1307 13.125 10.6103 13.125 7.49982C13.125 4.43713 10.6772 1.94484 7.63182 1.87482C7.61468 1.87427 7.5976 1.87718 7.58161 1.88337C7.56561 1.88956 7.55103 1.89891 7.53873 1.91085C7.52642 1.9228 7.51665 1.93711 7.51 1.95291C7.50334 1.96872 7.49993 1.9857 7.49998 2.00285V4.45295" stroke="#898A8D" stroke-linecap="round" stroke-linejoin="round"/>
<path d="M6.83732 8.16347L4.52286 4.85291C4.49084 4.80705 4.47599 4.75137 4.4809 4.69565C4.48582 4.63993 4.51019 4.58771 4.54974 4.54816C4.5893 4.5086 4.64151 4.48423 4.69723 4.47932C4.75296 4.4744 4.80863 4.48925 4.8545 4.52127L8.16506 6.83573C8.36811 6.98198 8.50544 7.20229 8.54732 7.449C8.5892 7.69571 8.53227 7.949 8.38885 8.15406C8.24543 8.35913 8.02704 8.49948 7.78093 8.54478C7.53482 8.59007 7.28077 8.53666 7.07374 8.39609C6.9822 8.33265 6.90223 8.25397 6.83732 8.16347Z" fill="#898A8D"/>
</svg>
