<svg width="40" height="40" viewBox="0 0 40 40" fill="none" xmlns="http://www.w3.org/2000/svg">
<path d="M8.23108 11.3688H10.7127L11.8679 31.72C11.8911 32.1432 12.2423 32.4744 12.6663 32.4744H27.8127C28.2367 32.4744 28.5879 32.1424 28.6111 31.7192L29.7479 11.3688H32.2311C32.6735 11.3688 33.0311 11.0104 33.0311 10.5688C33.0311 10.1272 32.6735 9.7688 32.2311 9.7688H29.2383C29.1943 9.7688 29.1559 9.7872 29.1135 9.7936C29.0719 9.7872 29.0335 9.7688 28.9911 9.7688H24.7943V7.6752C24.7943 7.2336 24.4367 6.8752 23.9943 6.8752H16.4671C16.0247 6.8752 15.6671 7.2336 15.6671 7.6752V9.7688H11.4687C11.4319 9.7688 11.3991 9.7856 11.3631 9.7904C11.3263 9.7848 11.2935 9.7688 11.2551 9.7688H8.23188C7.78948 9.7688 7.43188 10.1272 7.43188 10.5688C7.43188 11.0104 7.78868 11.3688 8.23108 11.3688ZM17.2671 8.4752H23.1943V9.7688H17.2671V8.4752ZM28.1455 11.3688L27.0559 30.8752H13.4223L12.3151 11.3688H28.1455Z" fill="#FF0000"/>
<path d="M16.2695 29.3752C16.2855 29.3752 16.2999 29.3752 16.3159 29.3744C16.7575 29.3496 17.0943 28.9712 17.0687 28.5304L16.2271 13.7024C16.2023 13.2608 15.8135 12.9288 15.3831 12.9488C14.9415 12.9736 14.6047 13.352 14.6303 13.7928L15.4719 28.6208C15.4959 29.0464 15.8487 29.3752 16.2695 29.3752Z" fill="#FF0000"/>
<path d="M24.1176 29.3744C24.1336 29.3752 24.148 29.3752 24.164 29.3752C24.5848 29.3752 24.9376 29.0464 24.9616 28.6208L25.8032 13.7928C25.828 13.352 25.4912 12.9736 25.0504 12.9488C24.616 12.9304 24.232 13.2608 24.2064 13.7024L23.3648 28.5304C23.34 28.9712 23.6768 29.3496 24.1176 29.3744Z" fill="#FF0000"/>
<path d="M20.2311 29.3752C20.6735 29.3752 21.0311 29.0168 21.0311 28.5752V13.7472C21.0311 13.3056 20.6735 12.9472 20.2311 12.9472C19.7888 12.9472 19.4312 13.3056 19.4312 13.7472V28.5752C19.4312 29.0168 19.7888 29.3752 20.2311 29.3752Z" fill="#FF0000"/>
</svg>
