<svg width="25" height="25" viewBox="0 0 25 25" fill="none" xmlns="http://www.w3.org/2000/svg">
<path d="M24.695 11.7633C25.1018 12.1701 25.1018 12.8297 24.695 13.2365L21.0492 16.8823L19.576 15.4092L21.4436 13.5416L10.4167 13.5416V11.4583L21.4436 11.4583L19.576 9.59066L21.0492 8.11752L24.695 11.7633Z" fill="#5D7FF6"/>
<path d="M17.7084 4.16659C17.7084 3.01599 16.7757 2.08325 15.6251 2.08325L6.25008 2.08325C5.09949 2.08325 4.16675 3.01599 4.16675 4.16659L4.16675 20.8333C4.16675 21.9838 5.09949 22.9166 6.25008 22.9166H15.6251C16.7757 22.9166 17.7084 21.9838 17.7084 20.8333V16.6666L15.6251 16.6666V20.8333H6.25008L6.25008 4.16659L15.6251 4.16659V8.33325H17.7084V4.16659Z" fill="#5D7FF6"/>
</svg>
