<svg width="25" height="25" viewBox="0 0 25 25" fill="none" xmlns="http://www.w3.org/2000/svg">
<path fill-rule="evenodd" clip-rule="evenodd" d="M16.6351 4.13507C16.9402 3.82998 17.4348 3.82998 17.7399 4.13507L23.2087 9.60382C23.5138 9.90892 23.5138 10.4036 23.2087 10.7087C22.9036 11.0138 22.4089 11.0138 22.1038 10.7087L17.1875 5.79235L12.2712 10.7087C11.9661 11.0138 11.4714 11.0138 11.1663 10.7087C10.8612 10.4036 10.8612 9.90892 11.1663 9.60382L16.6351 4.13507Z" fill="#5D7FF6"/>
<path fill-rule="evenodd" clip-rule="evenodd" d="M17.1875 4.74182C17.619 4.74182 17.9688 5.0916 17.9688 5.52307V20.3116C17.9688 20.7431 17.619 21.0929 17.1875 21.0929C16.756 21.0929 16.4062 20.7431 16.4062 20.3116V5.52307C16.4062 5.0916 16.756 4.74182 17.1875 4.74182Z" fill="#5D7FF6"/>
<path fill-rule="evenodd" clip-rule="evenodd" d="M1.79132 14.2913C2.09642 13.9862 2.59108 13.9862 2.89618 14.2913L7.8125 19.2076L12.7288 14.2913C13.0339 13.9862 13.5286 13.9862 13.8337 14.2913C14.1388 14.5964 14.1388 15.0911 13.8337 15.3962L8.36493 20.8649C8.05983 21.17 7.56517 21.17 7.26007 20.8649L1.79132 15.3962C1.48623 15.0911 1.48623 14.5964 1.79132 14.2913Z" fill="#5D7FF6"/>
<path fill-rule="evenodd" clip-rule="evenodd" d="M7.8125 3.90625C8.24397 3.90625 8.59375 4.25603 8.59375 4.6875V19.4336C8.59375 19.8651 8.24397 20.2148 7.8125 20.2148C7.38103 20.2148 7.03125 19.8651 7.03125 19.4336V4.6875C7.03125 4.25603 7.38103 3.90625 7.8125 3.90625Z" fill="#5D7FF6"/>
</svg>
